<?xml version="1.0" encoding="UTF-8" standalone="no"?>
<!-- Created with Inkscape (http://www.inkscape.org/) -->

<svg
   width="43.726074mm"
   height="16.003214mm"
   viewBox="0 0 43.726074 16.003214"
   version="1.1"
   id="svg1"
   inkscape:version="1.4.2 (f4327f4, 2025-05-13)"
   sodipodi:docname="anilogo_valge.svg"
   xmlns:inkscape="http://www.inkscape.org/namespaces/inkscape"
   xmlns:sodipodi="http://sodipodi.sourceforge.net/DTD/sodipodi-0.dtd"
   xmlns="http://www.w3.org/2000/svg"
   xmlns:svg="http://www.w3.org/2000/svg">
  <sodipodi:namedview
     id="namedview1"
     pagecolor="#ffffff"
     bordercolor="#000000"
     borderopacity="0.25"
     inkscape:showpageshadow="2"
     inkscape:pageopacity="0.0"
     inkscape:pagecheckerboard="0"
     inkscape:deskcolor="#d1d1d1"
     inkscape:document-units="mm"
     inkscape:zoom="5.7513468"
     inkscape:cx="89.891988"
     inkscape:cy="27.906507"
     inkscape:window-width="1920"
     inkscape:window-height="1009"
     inkscape:window-x="-8"
     inkscape:window-y="-8"
     inkscape:window-maximized="1"
     inkscape:current-layer="layer1" />
  <defs
     id="defs1" />
  <g
     inkscape:label="Kiht 1"
     inkscape:groupmode="layer"
     id="layer1"
     transform="translate(-24.545336,-111.36204)">
    <path
       d="m 36.81516,122.01588 h -6.846093 l -2.22002,3.80752 h 1.996777 c 0.239779,0 0.401009,0.0372 0.483692,0.11162 0.08268,0.0661 0.124023,0.16535 0.124023,0.29766 0,0.17363 -0.07028,0.32246 -0.21084,0.44648 -0.140559,0.12403 -0.347265,0.18604 -0.620117,0.18604 h -3.881933 c -0.231511,0 -0.388607,-0.0372 -0.471289,-0.11162 -0.08268,-0.0744 -0.124024,-0.17777 -0.124024,-0.31006 0,-0.16537 0.06615,-0.31006 0.198438,-0.43409 0.140559,-0.12402 0.347265,-0.18603 0.620117,-0.18603 h 0.79375 l 7.255371,-12.42715 0.144479,-0.46004 c 0.366471,-1.16688 2.923661,-0.44713 0.586797,0.13082 3.183584,-0.81046 0.290009,-0.0464 0.290009,-0.0464 1.274035,0.64108 -0.853923,-0.63209 -0.721633,-0.75611 0.542077,-1.2282 32.934954,0.74706 32.630307,0.74057 l -30.548706,-0.65059 2.232422,13.46895 h 0.806152 c 0.231511,0 0.388607,0.0372 0.471289,0.11162 0.08268,0.0661 0.124023,0.16535 0.124023,0.29766 0,0.17363 -0.07028,0.32246 -0.210839,0.44648 -0.132292,0.12403 -0.334864,0.18604 -0.607715,0.18604 h -3.894336 c -0.231511,0 -0.388607,-0.0372 -0.471289,-0.11162 -0.08268,-0.0744 -0.124024,-0.17777 -0.124024,-0.31006 0,-0.16537 0.06615,-0.31006 0.198438,-0.43409 0.14056,-0.12402 0.347266,-0.18603 0.620117,-0.18603 h 1.996777 z m -0.173633,-1.0418 -1.265039,-7.57783 h -0.384472 l -4.415235,7.57783 z m 9.338965,-4.84931 -0.334863,1.57509 c 0.909505,-0.75241 1.682585,-1.26504 2.319238,-1.53789 0.644922,-0.27285 1.339453,-0.40927 2.083594,-0.40927 1.02526,0 1.827278,0.27285 2.406054,0.81855 0.587045,0.54571 0.880567,1.25264 0.880567,2.1208 0,0.16537 -0.02067,0.35554 -0.06201,0.57051 l -1.401465,6.56084 h 0.880567 c 0.23151,0 0.388606,0.0372 0.471289,0.11162 0.08268,0.0661 0.124023,0.16535 0.124023,0.29766 0,0.17363 -0.07028,0.32246 -0.21084,0.44648 -0.132291,0.12403 -0.334863,0.18604 -0.607714,0.18604 H 49.726 c -0.231511,0 -0.388607,-0.0372 -0.471289,-0.11162 -0.08268,-0.0744 -0.124024,-0.17777 -0.124024,-0.31006 0,-0.16537 0.06615,-0.31006 0.198438,-0.43409 0.14056,-0.12402 0.347266,-0.18603 0.620117,-0.18603 h 0.880566 l 1.351856,-6.38721 c 0.04134,-0.19017 0.06201,-0.37207 0.06201,-0.5457 0,-0.60358 -0.21084,-1.09967 -0.63252,-1.48828 -0.421679,-0.39687 -1.02526,-0.59531 -1.810742,-0.59531 -0.719336,0 -1.364258,0.14469 -1.934766,0.43408 -0.562239,0.28939 -1.413867,0.97151 -2.554882,2.04638 l -1.389063,6.53604 h 1.178223 c 0.23151,0 0.388606,0.0372 0.471289,0.11162 0.08268,0.0661 0.124023,0.16535 0.124023,0.29766 0,0.17363 -0.07028,0.32246 -0.21084,0.44648 -0.132291,0.12403 -0.334863,0.18604 -0.607714,0.18604 h -3.398243 c -0.23151,0 -0.388606,-0.0372 -0.471289,-0.11162 -0.08268,-0.0744 -0.124023,-0.17777 -0.124023,-0.31006 0,-0.16537 0.06615,-0.31006 0.198437,-0.43409 0.14056,-0.12402 0.347266,-0.18603 0.620118,-0.18603 h 1.178222 l 1.835547,-8.64443 h -0.880566 c -0.231511,0 -0.388607,-0.0372 -0.471289,-0.11163 -0.08268,-0.0744 -0.124024,-0.17776 -0.124024,-0.31005 0,-0.16537 0.06615,-0.31006 0.198438,-0.43409 0.14056,-0.13229 0.347266,-0.19843 0.620117,-0.19843 z m 19.161621,0 -2.058789,9.69863 h 4.092773 c 0.231511,0 0.388607,0.0372 0.471289,0.11162 0.08268,0.0661 0.124024,0.16535 0.124024,0.29766 0,0.17363 -0.07028,0.32246 -0.21084,0.44648 -0.132292,0.12403 -0.334864,0.18604 -0.607715,0.18604 h -9.227343 c -0.231511,0 -0.388607,-0.0372 -0.47129,-0.11162 -0.08268,-0.0744 -0.124023,-0.17777 -0.124023,-0.31006 0,-0.16537 0.06615,-0.31006 0.198438,-0.43409 0.140559,-0.12402 0.347265,-0.18603 0.620117,-0.18603 h 4.092773 l 1.835547,-8.64443 H 60.8385 c -0.231511,0 -0.392741,-0.0372 -0.483692,-0.11163 -0.08268,-0.0744 -0.124023,-0.17776 -0.124023,-0.31005 0,-0.16537 0.07028,-0.31006 0.21084,-0.43409 0.14056,-0.13229 0.347266,-0.19843 0.620117,-0.19843 z"
       id="text10"
       style="font-style:italic;font-size:25.4px;font-family:'Courier New';-inkscape-font-specification:'Courier New Italic';fill:#ffffff;fill-opacity:1;stroke:#ffffff;stroke-opacity:1"
       aria-label="Ani"
       sodipodi:nodetypes="cccscsssssscsccscscsccscscsssscsccccccccccscsccscscsssscsccscscccscscsssscsccssscscccscscsssscsccscscsc" />
  </g>
</svg>
